<?xml version="1.0" standalone="no"?><svg xmlns="http://www.w3.org/2000/svg" viewBox="0 0 1440 320"><path fill="#0099ff" fill-opacity="1" d="M0,256L34.3,256C68.6,256,137,256,206,213.3C274.3,171,343,85,411,58.7C480,32,549,64,617,90.7C685.7,117,754,139,823,128C891.4,117,960,75,1029,58.7C1097.1,43,1166,53,1234,96C1302.9,139,1371,213,1406,250.7L1440,288L1440,0L1405.7,0C1371.4,0,1303,0,1234,0C1165.7,0,1097,0,1029,0C960,0,891,0,823,0C754.3,0,686,0,617,0C548.6,0,480,0,411,0C342.9,0,274,0,206,0C137.1,0,69,0,34,0L0,0Z"></path></svg>